<?xml version="1.0" encoding="utf-8"?>
<!-- Generator: Adobe Illustrator 16.0.0, SVG Export Plug-In . SVG Version: 6.00 Build 0)  -->
<!DOCTYPE svg PUBLIC "-//W3C//DTD SVG 1.1//EN" "http://www.w3.org/Graphics/SVG/1.1/DTD/svg11.dtd">
<svg version="1.1" id="Ebene_1" xmlns="http://www.w3.org/2000/svg" xmlns:xlink="http://www.w3.org/1999/xlink" x="0px" y="0px"
	 width="262.1px" height="115.3px" viewBox="279.7 215 262.1 115.3" style="enable-background:new 279.7 215 262.1 115.3;"
	 xml:space="preserve">
<style type="text/css">
<![CDATA[
	.st0{fill:#FFFFFF;}
]]>
</style>
<path class="st0" d="M378,313.5l-3.8-3.8c-5.2-5.2-12.9-6.2-19.1-3c-14.5,7.6-32.9,5.4-45.1-6.8c-3.6-3.6-6.3-7.8-8.3-12.2
	c-2.7-6.3-9.3-9.5-16.8-9.5h-5.2c1.2,12.9,6.8,25.4,16.6,35.3c5.7,5.7,12.4,10,19.5,12.8C336.6,334.6,361.2,330.3,378,313.5"/>
<path class="st0" d="M337.4,253.5c-10.6,0-19.2,8.6-19.2,19.2s8.6,19.2,19.2,19.2s19.2-8.6,19.2-19.2S348.1,253.5,337.4,253.5"/>
<path class="st0" d="M374.2,235.7l3.8-3.8c-15.3-15.3-37-20.2-56.5-14.7c-9.2,2.6-17.9,7.5-25.1,14.7c-9.9,9.9-15.4,22.4-16.6,35.3
	h5.2c7.3,0,13.9-3,16.7-9.2l0.1-0.2c1.8-4.4,4.6-8.6,8.3-12.2c0.6-0.5,1-1,1.6-1.5l0.3-0.2c4.9-4.3,10.6-7.1,16.6-8.4
	c8.9-2,18.4-0.9,26.6,3.5C361.3,241.9,369.1,240.9,374.2,235.7"/>
<path class="st0" d="M488.1,323.4v-27.2h-4.7v20.8h-0.5l-8.4-20.8h-7.8v27.2h4.7v-21h0.6l8.4,21H488.1z M462.5,323.4v-4.1h-10v-7.6
	h6.8v-4.1h-6.8v-7h9.8v-4.2H447v27.2L462.5,323.4L462.5,323.4z M441.1,296.2h-5.4v27.2h5.4V296.2z M431.8,296.2h-4.9l-3.7,20.7h-0.6
	l-3.8-20.7H412l-4.1,20.7h-0.6l-3.4-20.7h-5.9l6,27.2h6.8l3.7-19.5l0.1-0.4h0.6l4,19.8h6.7L431.8,296.2z"/>
<path class="st0" d="M541.9,277.5c0-4.3-2.2-6.4-6.2-7.6c-2.2-0.6-5.2-1.3-5.2-4c0-3.1,2.9-3.6,4.6-3.6c2.9,0,5.1,0.4,5.1,0.4v-3.9
	c-1.3-0.2-3.1-0.6-6-0.6c-7,0-9.4,3.9-9.4,8.2c0,5,2.5,6.3,6.7,7.7c2,0.7,4.6,1.5,4.6,4.2c0,2.9-2.2,3.9-4.7,3.9
	c-3.1,0-6.5-0.7-6.5-0.7v4.1c0,0,3.2,0.8,7.1,0.8C537.7,286.3,541.9,283.3,541.9,277.5 M519.9,277.2v-18.6h-5.1v18.7
	c0,2.9-0.3,4.7-3.8,4.7s-3.9-1.8-3.9-4.7v-18.7h-5.4v18.6c0,6.3,2.7,9.1,9.3,9.1C517.8,286.2,519.9,283.7,519.9,277.2 M492.1,267.6
	c0,4.1-1.2,5.2-3.6,5.2h-3.1v-10.4h3.1C490.9,262.4,492.1,263.4,492.1,267.6 M497.9,267.6c0-4.3-1.5-8.9-9-8.9H480v27.2h5.4v-9.1
	h3.9C495.3,276.7,497.9,272.2,497.9,267.6 M475.2,285.8l-2-27.2h-8.5l-4.3,20.6h-0.6l-4.1-20.6H447l-2,27.2h4.7l1.4-22.5l0.1-0.5
	h0.6l4.9,22.9h6.9l5-22.5l0.1-0.5h0.6l1.1,22.9h5.2V285.8z M433.8,275.8h-6.3l3-12.3h0.6L433.8,275.8z M442.3,285.8l-8-27.2h-7.1
	l-8.4,27.2h5.8l1.6-6.2h8.6l1.7,6.2H442.3z M416.3,285.5v-3.9c0,0-2.7,0.5-4.9,0.5c-4.7,0-7.6-1.4-7.6-9.9c0-8.4,3-9.7,7.6-9.7
	c2.2,0,4.9,0.5,4.9,0.5v-3.9c0,0-3-0.8-6.7-0.8c-8,0-11.8,4.9-11.8,14.1c0,9.2,3.8,14.1,11.8,14.1
	C413.4,286.3,416.3,285.5,416.3,285.5"/>
<path class="st0" d="M437.7,248.2V221h-5.4v11.1h-8.4V221h-5.4v27.2h5.4v-11.8h8.4v11.8H437.7z M414.5,225.4V221h-15.3v27.2h5.4v-11
	h7.1v-4.3h-7.2v-7.5H414.5z"/>
</svg>
